<svg version="1.0" xmlns="http://www.w3.org/2000/svg"
 width="1000.000000pt" height="1000.000000pt" viewBox="0 0 1000.000000 1000.000000"
 preserveAspectRatio="xMidYMid meet">

  <!-- Fondo blanco dentro del círculo -->
  <circle cx="500" cy="500" r="500" fill="white" />

  <g transform="translate(0.000000,1000.000000) scale(0.100000,-0.100000)"
  fill="#DE203A" stroke="none">
    <path d="M4708 9990 c-858 -54 -1666 -314 -2379 -766 -739 -468 -1341 -1121
    -1757 -1904 -262 -494 -453 -1098 -526 -1662 -55 -425 -55 -891 0 -1316 181
    -1396 963 -2666 2137 -3470 640 -438 1395 -727 2159 -826 425 -55 891 -55
    1316 0 1322 171 2534 882 3342 1959 515 688 845 1495 954 2337 55 425 55 891
    0 1316 -181 1396 -963 2666 -2137 3470 -707 485 -1510 770 -2392 852 -157 14
    -556 20 -717 10z m-913 -2780 c392 -22 687 -106 920 -263 84 -57 234 -209 287
    -292 120 -189 178 -425 164 -670 -11 -187 -61 -330 -167 -469 -53 -70 -179
    -190 -251 -239 -26 -17 -48 -34 -48 -37 0 -3 20 -16 45 -29 24 -13 83 -54 130
    -92 53 -42 87 -64 90 -56 57 170 173 417 261 555 78 121 393 534 567 742 6 8
    73 91 147 184 74 93 195 244 268 335 73 91 163 205 200 253 l67 87 803 1 c441
    0 802 -3 802 -7 0 -5 -19 -28 -43 -53 -23 -25 -82 -91 -131 -145 -49 -55 -114
    -127 -145 -161 -127 -137 -231 -252 -277 -305 -43 -48 -132 -147 -548 -604
    -45 -49 -101 -111 -124 -136 -23 -25 -42 -49 -42 -52 0 -3 23 4 51 14 235 90
    534 108 784 47 494 -118 877 -527 992 -1057 31 -143 42 -403 24 -544 -26 -193
    -63 -321 -146 -492 -218 -454 -650 -769 -1215 -885 -205 -42 -351 -54 -585
    -46 -676 21 -1231 294 -1547 762 -33 49 -63 90 -67 91 -3 1 -26 -25 -51 -59
    -116 -157 -333 -306 -563 -387 -182 -64 -379 -100 -602 -110 -88 -4 -673 -6
    -1300 -4 -627 2 -1148 4 -1157 4 -17 -1 -18 103 -18 2057 0 1132 3 2062 7
    2065 10 10 2235 8 2418 -3z"/>
    <path d="M2580 6000 l0 -311 553 4 c588 4 594 4 693 55 86 44 134 135 134 254
    0 150 -62 234 -210 283 -50 17 -105 19 -612 22 l-558 4 0 -311z"/>
    <path d="M6647 5054 c-142 -25 -242 -79 -348 -184 -82 -82 -132 -167 -165
    -280 -28 -97 -26 -272 3 -365 62 -195 204 -337 408 -406 61 -21 88 -24 210
    -24 126 0 148 3 216 27 250 88 400 275 431 536 10 86 9 113 -5 189 -37 192
    -160 362 -325 447 -55 28 -158 56 -245 66 -96 11 -81 12 -180 -6z"/>
    <path d="M2580 4385 l0 -396 583 3 c528 3 587 5 637 22 176 57 238 162 227
    385 -10 210 -65 306 -204 353 -68 23 -71 23 -655 26 l-588 3 0 -396z"/>
  </g>
</svg>
