<svg width="58" height="54" viewBox="0 0 58 54" fill="none" xmlns="http://www.w3.org/2000/svg">
<path d="M44.0507 51.4464C32.8167 51.0634 20.7047 50.0524 10.6767 44.5204C3.61372 40.6234 -1.60129 29.5904 6.67971 24.0614C11.6657 20.7324 18.9637 21.4454 24.4177 22.9634C26.9857 23.6784 29.5447 24.8324 31.5137 26.6584C32.3607 27.4444 32.9477 28.4444 32.9977 29.6084C33.0297 30.3784 33.5177 29.8134 31.9887 29.5594C31.1987 29.4284 30.4507 29.1374 29.7347 28.7884C24.3577 26.1774 25.5777 18.4514 27.1857 13.9664C29.3107 8.03638 34.4797 2.41138 41.1427 2.45038C51.1027 2.50938 55.4947 12.9604 55.1607 21.3324C54.7297 32.1114 49.8237 43.2014 43.8517 52.0104C42.9447 53.3484 45.1117 54.5984 46.0097 53.2724C53.0457 42.8934 59.6607 27.8864 57.3917 15.0384C55.7837 5.93438 46.7497 -1.93462 37.2067 0.422378C24.0637 3.66838 15.6017 31.4924 33.9847 32.2494C34.5477 32.2724 35.0327 31.8494 35.1897 31.3324C37.0187 25.3234 29.6207 21.9474 25.0817 20.5524C18.6637 18.5794 9.46571 18.2154 4.04771 22.8924C-2.55729 28.5954 -0.345285 38.4344 5.42571 43.8314C14.9957 52.7814 31.7627 53.5264 44.0507 53.9464C45.6647 54.0014 45.6587 51.5004 44.0507 51.4464Z" fill="white"/>
</svg>
